<svg xmlns="http://www.w3.org/2000/svg" width="151.012" height="36.214" viewBox="0 0 151.012 36.214">
  <defs>
    <style>
      .cls-1 {
        fill: #2c363f;
      }
    </style>
  </defs>
  <path id="Path_3" data-name="Path 3" class="cls-1" d="M19.646-10.412a7.386,7.386,0,0,0,6.612-7.3c0-6.232-5.89-9.69-12.73-9.69C6.764-27.4.76-23.294.76-16.074A8.346,8.346,0,0,0,3.116-9.538L6.574-12.5a4.743,4.743,0,0,1-1.292-3.572c0-4.56,4.294-6.954,8.4-6.954,3.876,0,7.79,1.71,7.79,5.662,0,3.686-3,4.826-6.118,5.054a9.26,9.26,0,0,1-1.026.038v-7.334H9.576V-5.4A1.32,1.32,0,0,1,8.132-3.952a3.094,3.094,0,0,1-2.2-1.026v4.1A6.043,6.043,0,0,0,9.386.342c1.976,0,3.686-.646,4.484-2.622A5.645,5.645,0,0,0,19,.342a5.339,5.339,0,0,0,5.244-5.51A5.951,5.951,0,0,0,19.646-10.412ZM17.062-3.534c-1.254,0-2.736-.76-2.736-1.938V-8.664a10.813,10.813,0,0,1,1.558-.152c1.9,0,3.762.722,3.762,2.926A2.422,2.422,0,0,1,17.062-3.534ZM33.82-14.782a7.59,7.59,0,0,0-7.562,7.6A7.582,7.582,0,0,0,33.82.38a7.582,7.582,0,0,0,7.562-7.562A7.59,7.59,0,0,0,33.82-14.782Zm0,11.476a3.772,3.772,0,0,1-3.762-3.876,3.78,3.78,0,0,1,3.5-3.914,2.776,2.776,0,0,0-.228,1.14,3,3,0,0,0,3,2.964,2.992,2.992,0,0,0,1.406-.38v.19A3.9,3.9,0,0,1,33.82-3.306ZM60.23-3.5a1.38,1.38,0,0,1-1.52-1.368V-26.98H54.378v14.212a5.576,5.576,0,0,0-4.484-1.976c-4.256,0-6.992,3.458-6.992,7.524,0,4.1,2.736,7.562,6.992,7.562a5.518,5.518,0,0,0,4.9-2.584A4.062,4.062,0,0,0,58.52.342a5.61,5.61,0,0,0,3.306-.95V-4.1A2.531,2.531,0,0,1,60.23-3.5Zm-9.31.228A3.855,3.855,0,0,1,47.2-7.22a3.855,3.855,0,0,1,3.724-3.952A3.73,3.73,0,0,1,54.378-8.7v2.964A3.769,3.769,0,0,1,50.92-3.268ZM71.744-14.44v8.512c-.342,1.6-1.178,2.66-2.584,2.66A1.891,1.891,0,0,1,67.3-5.4V-14.44H62.966v9.5A5.136,5.136,0,0,0,68.02.38a4.556,4.556,0,0,0,3.724-1.748v4.1a2.569,2.569,0,0,1-2.47,2.47l1.634,3.61c3.116,0,5.168-3.268,5.168-6.08V-14.44Zm40.888-8.246V-26.98H95.494c-4.522,0-8.968,2.356-8.968,7.372,0,4.75,3.116,6.992,7.6,7.3l1.444-4.332c-1.9,0-4.332-.532-4.332-2.888s1.824-3.078,3.914-3.078h10.754c-3,1.026-4.522,4.218-4.522,7.22v3.04H97.166v4.294h4.218v2.242c0,1.33-.8,1.9-2.052,1.9A5.983,5.983,0,0,1,95.57-5.4V-.874A10.231,10.231,0,0,0,100.092.342c3.686,0,6.042-2.47,6.042-6.156V-8.056h4.256V-12.35h-4.256v-3.04C106.134-19.19,108.68-22.686,112.632-22.686ZM127.262-3.5a1.4,1.4,0,0,1-1.52-1.368V-14.44H121.41v8.512c-.266,1.482-1.14,2.66-2.584,2.66A1.891,1.891,0,0,1,116.964-5.4V-14.44h-4.332v9.5A5.136,5.136,0,0,0,117.686.38a4.4,4.4,0,0,0,4.18-2.546A4.188,4.188,0,0,0,125.59.342a5.572,5.572,0,0,0,3.268-.95V-4.1A2.531,2.531,0,0,1,127.262-3.5Zm7.98-.152,7.6-7.6a7.531,7.531,0,0,0-6.688-3.5,7.472,7.472,0,0,0-7.3,7.41c0,4.788,3.8,7.676,8.36,7.676a9.99,9.99,0,0,0,4.066-.836v-4.18a6.13,6.13,0,0,1-4.066,1.368A5.533,5.533,0,0,1,135.242-3.648Zm.722-7.448a2.628,2.628,0,0,1,1.672.494L133-5.776a4.066,4.066,0,0,1-.3-1.558C132.7-9.31,133.836-11.1,135.964-11.1ZM151.772-.608V-4.1a2.355,2.355,0,0,1-1.558.608,1.38,1.38,0,0,1-1.52-1.368V-26.98h-4.332V-4.294A4.39,4.39,0,0,0,148.5.342,5.417,5.417,0,0,0,151.772-.608Z" transform="translate(-0.76 27.398)"/>
</svg>
