<svg xmlns="http://www.w3.org/2000/svg" width="306" height="547"><defs><style>.cls-2,.cls-3{fill:#2c363f}.cls-2{font-size:13px;font-family:Muli-Regular,Muli}.cls-3{font-size:15px;font-family:Muli-Bold,Muli;font-weight:700}</style></defs><g id="Group_65" data-name="Group 65" transform="translate(-909 -3733)"><g id="Group_64" data-name="Group 64"><g id="Rectangle_18" data-name="Rectangle 18" transform="translate(909 3733)" stroke="#707070" fill="none"><rect width="306" height="547" rx="12" stroke="none"/><rect x=".5" y=".5" width="305" height="546" rx="11.5"/></g><g id="Group_58" data-name="Group 58" transform="translate(909 3755)"><g id="Group_57" data-name="Group 57" transform="translate(5 3)"><text id="Time" class="cls-2" transform="translate(40 70)"><tspan x="-14.716" y="0">Time</tspan></text><text id="_17:36" data-name="17:36" class="cls-3" transform="translate(45 51)"><tspan x="-19.882" y="0">17:36</tspan></text></g><text id="BPM" class="cls-2" transform="translate(143 73)"><tspan x="-14.177" y="0">BPM</tspan></text><text id="Miles" transform="translate(153 270)" font-size="15" font-family="Muli-Regular,Muli" fill="#2c363f"><tspan x="-17.737" y="0">Miles</tspan></text><text id="_132" data-name="132" class="cls-3" transform="translate(144 54)"><tspan x="-13.507" y="0">132</tspan></text><text id="_3.23" data-name="3.23" transform="translate(153 213)" font-size="111" font-family="Gastromond-Regular,Gastromond" fill="#2c363f"><tspan x="-113.664" y="0">3.23</tspan></text><g id="Group_56" data-name="Group 56" transform="translate(5 3)"><text id="Avg._Pace" data-name="Avg. Pace" class="cls-2" transform="translate(242 70)"><tspan x="-29.939" y="0">Avg. Pace</tspan></text><text id="_8_01_" data-name="8’01”" class="cls-3" transform="translate(243 51)"><tspan x="-18.712" y="0">8’01”</tspan></text></g><path id="pause-solid" d="M36.466 144.448H12.155A12.158 12.158 0 010 132.293V43.155A12.158 12.158 0 0112.155 31h24.31a12.158 12.158 0 0112.156 12.155v89.138a12.158 12.158 0 01-12.155 12.155zm76.983-12.155V43.155A12.158 12.158 0 00101.293 31h-24.31a12.158 12.158 0 00-12.155 12.155v89.138a12.158 12.158 0 0012.155 12.155h24.31a12.158 12.158 0 0012.155-12.155z" transform="translate(96.276 319.276)" fill="#2c363f"/></g></g></g></svg>