<svg xmlns="http://www.w3.org/2000/svg" width="306" height="575"><defs><filter id="Rectangle_26" x="13.5" y="0" width="279" height="316" filterUnits="userSpaceOnUse"><feOffset dy="1"/><feGaussianBlur stdDeviation="1.5" result="blur"/><feFlood flood-opacity=".051"/><feComposite operator="in" in2="blur"/><feComposite in="SourceGraphic"/></filter><filter id="Rectangle_24" x="17.5" y="290" width="272" height="91" filterUnits="userSpaceOnUse"><feOffset dy="1"/><feGaussianBlur stdDeviation="1.5" result="blur-2"/><feFlood flood-opacity=".051"/><feComposite operator="in" in2="blur-2"/><feComposite in="SourceGraphic"/></filter><filter id="Rectangle_25" x="17.5" y="385" width="272" height="99" filterUnits="userSpaceOnUse"><feOffset dy="1"/><feGaussianBlur stdDeviation="1.5" result="blur-3"/><feFlood flood-opacity=".051"/><feComposite operator="in" in2="blur-3"/><feComposite in="SourceGraphic"/></filter><filter id="Rectangle_27" x="17.5" y="488" width="272" height="87" filterUnits="userSpaceOnUse"><feOffset dy="1"/><feGaussianBlur stdDeviation="1.5" result="blur-4"/><feFlood flood-opacity=".051"/><feComposite operator="in" in2="blur-4"/><feComposite in="SourceGraphic"/></filter><style>.cls-4{fill:none}.cls-5,.cls-6{fill:#2c363f}.cls-3{fill:#fff}.cls-4{stroke:#efefef;stroke-linecap:round;stroke-width:4px}.cls-5,.cls-6{font-size:14px}.cls-5,.cls-7{font-family:Muli-Bold,Muli;font-weight:700}.cls-6{font-family:Muli-Regular,Muli;opacity:.8}.cls-7{fill:#c5efcb;font-size:20px}</style></defs><g id="Group_65" data-name="Group 65" transform="translate(-414 -3092.5)"><g id="Rectangle_28" data-name="Rectangle 28" transform="translate(414 3096)" stroke="#707070" fill="none"><rect width="306" height="567" rx="12" stroke="none"/><rect x=".5" y=".5" width="305" height="566" rx="11.5"/></g><g id="Group_54" data-name="Group 54" transform="translate(410 3096)"><g transform="translate(4 -3.5)" filter="url(#Rectangle_26)"><path id="Rectangle_26-2" data-name="Rectangle 26" d="M0 0h270v295a12 12 0 01-12 12H12a12 12 0 01-12-12V0z" transform="translate(18 3.5)" fill="#2c363f"/></g><g transform="translate(4 -3.5)" filter="url(#Rectangle_24)"><rect id="Rectangle_24-2" data-name="Rectangle 24" class="cls-3" width="263" height="82" rx="12" transform="translate(22 293.5)"/></g><g transform="translate(4 -3.5)" filter="url(#Rectangle_25)"><rect id="Rectangle_25-2" data-name="Rectangle 25" class="cls-3" width="263" height="90" rx="12" transform="translate(22 388.5)"/></g><g transform="translate(4 -3.5)" filter="url(#Rectangle_27)"><path id="Rectangle_27-2" data-name="Rectangle 27" class="cls-3" d="M12 0h239a12 12 0 0112 12v66H0V12A12 12 0 0112 0z" transform="translate(22 491.5)"/></g><g id="Group_53" data-name="Group 53" transform="translate(-11.5 5.5)"><path id="Line_1" data-name="Line 1" class="cls-4" transform="translate(252.5 29.5)" d="M0 0h30"/><path id="Line_2" data-name="Line 2" class="cls-4" transform="translate(252.5 39.5)" d="M0 0h30"/><path id="Line_3" data-name="Line 3" class="cls-4" transform="translate(252.5 49.5)" d="M0 0h30"/></g><text id="_5K_run_completed" data-name="5K run completed" class="cls-5" transform="translate(115 321)"><tspan x="0" y="0">5K run completed</tspan></text><text id="Burned_calories" data-name="Burned calories" class="cls-5" transform="translate(115 421)"><tspan x="0" y="0">Burned calories</tspan></text><text id="Getting_speed" data-name="Getting speed" class="cls-5" transform="translate(115 521)"><tspan x="0" y="0">Getting speed</tspan></text><text id="Nulla_vel_urna_quis_libero" data-name="Nulla vel urna quis libero" class="cls-6" transform="translate(115 344)"><tspan x="0" y="0">Nulla vel urna quis libero</tspan></text><text id="Cursus_at_eros." data-name="Cursus at eros." class="cls-6" transform="translate(115 444)"><tspan x="0" y="0">Cursus at eros.</tspan></text><text id="Malesuada_at_scepe" data-name="Malesuada at scepe" class="cls-6" transform="translate(114 544)"><tspan x="0" y="0">Malesuada at scepe</tspan></text><text id="_5K" data-name="5K" class="cls-7" transform="translate(60 339)"><tspan x="0" y="0">5K</tspan></text><text id="_5000_kCal" data-name="5000 kCal" class="cls-7" transform="translate(52 427)"><tspan x="0" y="0">5000</tspan><tspan x="0" y="22">kCal</tspan></text><text id="_236_kCal" data-name="236 kCal" class="cls-7" transform="translate(52 527)"><tspan x="0" y="0">236</tspan><tspan x="0" y="22">kCal</tspan></text></g><text id="Body_Fuel" data-name="Body Fuel" transform="translate(454 3144)" font-size="16" font-family="Coquette-Bold,Coquette" letter-spacing="-.04em" font-weight="700" fill="#fff"><tspan x="0" y="0">Body Fuel</tspan></text><path id="award-solid" d="M20.866 77.908c-1.867-1.867-.894-1.341-5.4-2.546A15.5 15.5 0 0110 72.5L.256 96.4a3.438 3.438 0 003.315 4.733l11.321-.432 7.786 8.225a3.437 3.437 0 005.679-1.066L39.54 80.44a15.419 15.419 0 01-18.676-2.533zM82.247 96.4L72.5 72.5a15.467 15.467 0 01-5.464 2.862c-4.527 1.212-3.534.683-5.4 2.546a15.422 15.422 0 01-18.676 2.533l11.183 27.42a3.437 3.437 0 005.679 1.066l7.788-8.227 11.321.432a3.439 3.439 0 003.316-4.732zM56.506 73.046c3.283-3.341 3.659-3.053 8.334-4.327a8.731 8.731 0 006.117-6.227c1.607-6.1 1.19-5.365 5.576-9.83a8.913 8.913 0 002.239-8.5c-1.605-6.1-1.607-5.247 0-11.351a8.913 8.913 0 00-2.239-8.5c-4.385-4.465-3.968-3.73-5.576-9.83a8.731 8.731 0 00-6.117-6.227c-5.99-1.635-5.268-1.208-9.658-5.674A8.549 8.549 0 0046.827.292c-5.988 1.633-5.152 1.635-11.151 0a8.544 8.544 0 00-8.356 2.28c-4.385 4.465-3.663 4.039-9.656 5.674a8.731 8.731 0 00-6.117 6.227c-1.6 6.1-1.19 5.365-5.576 9.83a8.908 8.908 0 00-2.239 8.5c1.6 6.093 1.607 5.243 0 11.349a8.918 8.918 0 002.239 8.506c4.385 4.465 3.968 3.728 5.576 9.83a8.731 8.731 0 006.117 6.227c4.809 1.311 5.167 1.1 8.332 4.327A8.539 8.539 0 0036.684 74.3a8.525 8.525 0 019.138 0 8.536 8.536 0 0010.684-1.254zM20.982 37.8a20.273 20.273 0 1120.27 20.631A20.453 20.453 0 0120.982 37.8z" transform="translate(525.75 3213.008)" fill="#c5efcb"/></g></svg>