<svg xmlns="http://www.w3.org/2000/svg" width="151.012" height="36.214"><path data-name="Path 3" d="M18.886 16.986a7.386 7.386 0 006.612-7.3c0-6.232-5.89-9.69-12.73-9.69C6.004-.002 0 4.104 0 11.324a8.346 8.346 0 002.356 6.536l3.458-2.962a4.743 4.743 0 01-1.292-3.572c0-4.56 4.294-6.954 8.4-6.954 3.876 0 7.79 1.71 7.79 5.662 0 3.686-3 4.826-6.118 5.054a9.26 9.26 0 01-1.026.038V7.792H8.816v14.206a1.32 1.32 0 01-1.444 1.448 3.094 3.094 0 01-2.2-1.026v4.1a6.043 6.043 0 003.454 1.22c1.976 0 3.686-.646 4.484-2.622a5.645 5.645 0 005.13 2.622 5.339 5.339 0 005.244-5.51 5.951 5.951 0 00-4.598-5.244zm-2.584 6.878c-1.254 0-2.736-.76-2.736-1.938v-3.192a10.813 10.813 0 011.558-.152c1.9 0 3.762.722 3.762 2.926a2.422 2.422 0 01-2.584 2.356zM33.06 12.616a7.59 7.59 0 00-7.562 7.6 7.582 7.582 0 007.562 7.562 7.582 7.582 0 007.562-7.562 7.59 7.59 0 00-7.562-7.6zm0 11.476a3.772 3.772 0 01-3.762-3.876 3.78 3.78 0 013.5-3.914 2.776 2.776 0 00-.228 1.14 3 3 0 003 2.964 2.992 2.992 0 001.406-.38v.19a3.9 3.9 0 01-3.916 3.876zm26.41-.194a1.38 1.38 0 01-1.52-1.368V.418h-4.332V14.63a5.576 5.576 0 00-4.484-1.976c-4.256 0-6.992 3.458-6.992 7.524 0 4.1 2.736 7.562 6.992 7.562a5.518 5.518 0 004.9-2.584 4.062 4.062 0 003.726 2.584 5.61 5.61 0 003.306-.95v-3.492a2.531 2.531 0 01-1.596.6zm-9.31.228a3.855 3.855 0 01-3.72-3.948 3.855 3.855 0 013.724-3.952 3.73 3.73 0 013.454 2.472v2.964a3.769 3.769 0 01-3.458 2.468zm20.824-11.168v8.512c-.342 1.6-1.178 2.66-2.584 2.66a1.891 1.891 0 01-1.86-2.132v-9.04h-4.334v9.5a5.136 5.136 0 005.054 5.32 4.556 4.556 0 003.724-1.748v4.1a2.569 2.569 0 01-2.47 2.47l1.634 3.61c3.116 0 5.168-3.268 5.168-6.08V12.958zm40.888-8.246V.418H94.734c-4.522 0-8.968 2.356-8.968 7.372 0 4.75 3.116 6.992 7.6 7.3l1.444-4.332c-1.9 0-4.332-.532-4.332-2.888s1.824-3.078 3.914-3.078h10.754c-3 1.026-4.522 4.218-4.522 7.22v3.04h-4.218v4.294h4.218v2.242c0 1.33-.8 1.9-2.052 1.9a5.983 5.983 0 01-3.762-1.49v4.526a10.231 10.231 0 004.522 1.216c3.686 0 6.042-2.47 6.042-6.156v-2.242h4.256v-4.294h-4.256v-3.04c0-3.8 2.546-7.296 6.498-7.296zm14.63 19.186a1.4 1.4 0 01-1.52-1.368v-9.572h-4.332v8.512c-.266 1.482-1.14 2.66-2.584 2.66a1.891 1.891 0 01-1.862-2.132v-9.04h-4.332v9.5a5.136 5.136 0 005.054 5.32 4.4 4.4 0 004.18-2.546 4.188 4.188 0 003.724 2.508 5.572 5.572 0 003.268-.95v-3.492a2.531 2.531 0 01-1.596.6zm7.98-.152l7.6-7.6a7.531 7.531 0 00-6.688-3.5 7.472 7.472 0 00-7.3 7.41c0 4.788 3.8 7.676 8.36 7.676a9.99 9.99 0 004.066-.836v-4.18a6.13 6.13 0 01-4.066 1.368 5.533 5.533 0 01-1.972-.334zm.722-7.448a2.628 2.628 0 011.672.494l-4.636 4.83a4.066 4.066 0 01-.3-1.558c0-1.976 1.136-3.766 3.264-3.766zm15.808 10.492v-3.492a2.355 2.355 0 01-1.558.608 1.38 1.38 0 01-1.52-1.368V.418h-4.332v22.686a4.39 4.39 0 004.138 4.636 5.417 5.417 0 003.272-.95z" fill="#2c363f"/></svg>